<?xml version="1.0" standalone="no"?>
<!DOCTYPE svg PUBLIC "-//W3C//DTD SVG 20010904//EN"
 "http://www.w3.org/TR/2001/REC-SVG-20010904/DTD/svg10.dtd">
<svg version="1.0" xmlns="http://www.w3.org/2000/svg"
 width="414.000000pt" height="417.000000pt" viewBox="0 0 414.000000 417.000000"
 preserveAspectRatio="xMidYMid meet">
<metadata>
Created by potrace 1.16, written by Peter Selinger 2001-2019
</metadata>
<g transform="translate(0.000000,417.000000) scale(0.100000,-0.100000)"
fill="#000000" stroke="none">
<path d="M966 3936 c-14 -25 -26 -49 -26 -54 0 -6 -13 -34 -29 -64 l-28 -55
-9 55 c-10 63 -34 84 -34 30 0 -39 -43 -150 -62 -160 -7 -4 -39 -18 -72 -32
-49 -22 -85 -46 -139 -94 -5 -4 -17 -21 -27 -39 -16 -26 -28 -33 -77 -43 -119
-23 -139 -28 -203 -52 -71 -27 -73 -32 -50 -98 7 -19 19 -54 27 -78 9 -24 22
-46 31 -49 8 -4 23 -14 32 -23 9 -9 58 -23 120 -34 152 -26 231 -51 262 -83
30 -32 69 -112 128 -268 58 -154 87 -259 95 -350 16 -181 38 -249 121 -375 38
-57 47 -82 69 -187 24 -115 26 -142 28 -470 1 -266 -1 -359 -11 -393 -10 -34
-32 -63 -87 -117 -83 -81 -118 -132 -83 -121 7 3 19 -1 26 -9 13 -12 67 -19
122 -15 14 1 37 2 52 2 73 0 106 42 119 155 5 39 15 92 22 120 12 42 18 50 38
50 26 0 26 -4 13 115 -8 74 50 523 62 485 2 -5 10 -90 19 -188 25 -297 18
-480 -21 -563 -9 -20 -50 -70 -91 -111 -67 -67 -84 -97 -57 -98 5 -1 20 -7 33
-14 25 -14 180 -19 217 -7 29 9 54 68 54 129 0 29 10 89 22 135 18 64 27 82
41 82 27 0 30 22 11 79 -15 48 -15 66 0 279 16 219 29 309 61 417 l14 51 128
42 c193 64 433 115 510 108 70 -6 103 -19 103 -42 0 -21 65 -205 88 -251 24
-45 59 -79 167 -160 115 -87 166 -142 206 -219 29 -57 35 -80 37 -149 5 -114
-8 -152 -83 -241 -36 -42 -65 -82 -65 -89 0 -23 62 -40 142 -38 142 3 148 15
148 277 0 172 10 314 26 369 5 17 7 17 24 2 36 -33 125 -170 142 -220 11 -31
17 -81 18 -132 0 -77 -3 -87 -41 -160 -22 -43 -46 -82 -53 -88 -14 -11 -36
-49 -36 -63 0 -13 71 -32 122 -32 79 0 106 10 129 47 21 33 21 38 10 236 -7
124 -8 244 -2 312 4 61 6 115 4 121 -2 6 -24 27 -48 47 -24 21 -63 69 -86 107
-65 110 -89 199 -104 396 -8 104 -20 186 -29 209 -20 48 -21 46 9 35 16 -6 25
-6 25 1 0 6 7 6 21 -1 42 -23 102 -32 225 -34 119 -2 186 3 179 14 -2 4 23 15
56 24 123 35 240 145 256 240 2 11 9 26 16 35 8 10 8 12 1 8 -17 -10 -26 21
-14 43 9 17 6 20 -17 26 -16 3 -33 7 -40 9 -6 2 -29 -1 -50 -7 -21 -7 -42 -11
-46 -10 -5 2 -22 -7 -38 -19 -16 -11 -35 -22 -42 -23 -7 -1 -23 -9 -36 -18
-13 -10 -28 -15 -32 -12 -5 3 -22 -2 -39 -11 -16 -8 -30 -11 -30 -6 0 5 -16 1
-36 -9 -30 -16 -54 -18 -149 -15 -84 2 -120 7 -137 19 -12 9 -36 16 -53 16
-20 0 -26 3 -17 9 17 11 -17 21 -71 21 -23 0 -36 4 -32 10 4 6 -7 10 -27 10
-25 0 -29 3 -18 10 12 7 9 9 -10 7 -43 -3 -161 14 -260 38 -52 13 -131 29
-175 35 -44 6 -210 45 -370 86 -264 67 -300 79 -405 133 -63 32 -126 62 -140
66 -104 31 -129 46 -141 83 -8 25 -55 81 -148 177 -108 111 -156 170 -230 282
l-93 141 -3 109 c-3 104 -18 172 -43 187 -6 3 -22 -14 -36 -38z"/>
</g>
</svg>
